<svg width="100" height="100" viewBox="0 0 100 100" fill="none" xmlns="http://www.w3.org/2000/svg">
<circle cx="50" cy="50" r="50" fill="#FF5252"/>
<path fill-rule="evenodd" clip-rule="evenodd" d="M41.8539 48.371C42.7537 49.2707 42.7537 50.7295 41.8539 51.6292L24.7487 68.7345C23.8489 69.6342 23.8489 71.093 24.7487 71.9927L28.0069 75.2509C28.9066 76.1506 30.3654 76.1506 31.2651 75.2509L48.3704 58.1456C49.2701 57.2459 50.7288 57.2459 51.6286 58.1456L68.7339 75.251C69.6336 76.1507 71.0924 76.1507 71.9921 75.251L75.2503 71.9927C76.15 71.093 76.15 69.6343 75.2503 68.7345L58.145 51.6292C57.2453 50.7295 57.2453 49.2707 58.145 48.371L75.2509 31.2651C76.1507 30.3653 76.1507 28.9066 75.2509 28.0069L71.9927 24.7486C71.093 23.8489 69.6342 23.8489 68.7345 24.7487L51.6286 41.8546C50.7288 42.7543 49.2701 42.7543 48.3704 41.8546L31.2645 24.7487C30.3647 23.849 28.906 23.849 28.0062 24.7487L24.748 28.0069C23.8483 28.9066 23.8483 30.3654 24.748 31.2651L41.8539 48.371Z" fill="white"/>
</svg>
